<?xml version="1.0" encoding="UTF-8"?>
<svg width="100pt" height="100pt" version="1.1" viewBox="0 0 100 100" xmlns="http://www.w3.org/2000/svg">
 <path d="m9.0273 24.09h2.8516v-2.332c0-4.9531 4.0703-9.0273 9.0234-9.0273h70.07c4.9688 0 9.0273 4.0547 9.0273 9.0273v45.133c0 4.957-4.0703 9.0234-9.0273 9.0234h-2.8516v2.3359c0 4.957-4.0703 9.0234-9.0234 9.0234h-70.07c-4.9688 0-9.0273-4.0547-9.0273-9.0234v-45.133c0-4.9531 4.0703-9.0234 9.0273-9.0234zm8.8047 0h61.266c4.9688 0 9.0234 4.0547 9.0234 9.0234v36.848h2.8516c1.6992 0 3.0742-1.375 3.0742-3.0703v-45.133c0-1.6836-1.3867-3.0703-3.0742-3.0703h-70.07c-1.6992 0-3.0703 1.3711-3.0703 3.0703zm64.336 31.59h-76.215v22.566c0 1.6836 1.3867 3.0703 3.0703 3.0703h70.07c1.6953 0 3.0703-1.375 3.0703-3.0703v-22.566zm-76.215-14.965h76.215v-7.6016c0-1.6836-1.3867-3.0703-3.0703-3.0703h-70.07c-1.6992 0-3.0703 1.3711-3.0703 3.0703v7.6016z" fill-rule="evenodd"/>
</svg>
